{
    "asset": {
        "generator": "COLLADA2GLTF",
        "version": "2.0"
    },
    "scenes": [
        {
            "nodes": [
                0
            ]
        }
    ],
    "scene": 0,
    "nodes": [
        {
            "children": [
                1
            ],
            "matrix": [
                1.0,
                0.0,
                0.0,
                0.0,
                0.0,
                0.0,
                -1.0,
                0.0,
                0.0,
                1.0,
                0.0,
                0.0,
                0.0,
                0.0,
                0.0,
                1.0
            ],
            "name": "Z_UP"
        },
        {
            "children": [
                14,
                10,
                6,
                2
            ],
            "name": "SketchUp"
        },
        {
            "children": [
                5,
                4,
                3
            ],
            "matrix": [
                1.0,
                0.0,
                0.0,
                0.0,
                0.0,
                1.0,
                0.0,
                0.0,
                0.0,
                0.0,
                1.0,
                0.0,
                1.6885936260223389,
                0.21469931304454804,
                0.0,
                1.0
            ],
            "name": "T34_ActionUnitMove_10_UNIT"
        },
        {
            "mesh": 0,
            "name": "group_8"
        },
        {
            "mesh": 1,
            "matrix": [
                1.0,
                0.0,
                0.0,
                0.0,
                0.0,
                1.0,
                0.0,
                0.0,
                0.0,
                0.0,
                1.0,
                0.0,
                0.1468711495399475,
                0.05241551250219345,
                0.10000000894069672,
                1.0
            ],
            "name": "group_7"
        },
        {
            "mesh": 2,
            "matrix": [
                1.0,
                0.0,
                0.0,
                0.0,
                0.0,
                1.0,
                0.0,
                0.0,
                0.0,
                0.0,
                1.0,
                0.0,
                0.4768453538417816,
                0.05399691686034203,
                0.10000000894069672,
                1.0
            ],
            "name": "group_6"
        },
        {
            "children": [
                9,
                8,
                7
            ],
            "matrix": [
                1.0,
                0.0,
                0.0,
                0.0,
                0.0,
                1.0,
                0.0,
                0.0,
                0.0,
                0.0,
                1.0,
                0.0,
                0.9065800309181212,
                0.21045635640621186,
                0.0,
                1.0
            ],
            "name": "T34_ActionUnitMove_5_UNIT"
        },
        {
            "mesh": 3,
            "matrix": [
                1.0,
                0.0,
                0.0,
                0.0,
                0.0,
                1.0,
                0.0,
                0.0,
                0.0,
                0.0,
                1.0,
                0.0,
                0.48382413387298586,
                0.05165138840675354,
                0.10000000894069672,
                1.0
            ],
            "name": "group_5"
        },
        {
            "mesh": 4,
            "matrix": [
                1.0,
                0.0,
                0.0,
                0.0,
                0.0,
                1.0,
                0.0,
                0.0,
                0.0,
                0.0,
                1.0,
                0.0,
                0.1468711495399475,
                0.05241551250219345,
                0.10000000894069672,
                1.0
            ],
            "name": "group_4"
        },
        {
            "mesh": 5,
            "name": "group_3"
        },
        {
            "children": [
                13,
                12,
                11
            ],
            "matrix": [
                1.0,
                0.0,
                0.0,
                0.0,
                0.0,
                1.0,
                0.0,
                0.0,
                0.0,
                0.0,
                1.0,
                0.0,
                0.14179781079292298,
                0.2058965116739273,
                -0.0,
                1.0
            ],
            "name": "T34_DEFAULT_10_UNIT"
        },
        {
            "mesh": 6,
            "matrix": [
                1.0,
                0.0,
                0.0,
                0.0,
                0.0,
                1.0,
                0.0,
                0.0,
                0.0,
                0.0,
                1.0,
                0.0,
                0.1468711495399475,
                0.05241551250219345,
                0.10000000894069672,
                1.0
            ],
            "name": "group_2"
        },
        {
            "mesh": 7,
            "name": "group_1"
        },
        {
            "mesh": 8,
            "matrix": [
                1.0,
                0.0,
                0.0,
                0.0,
                0.0,
                1.0,
                0.0,
                0.0,
                0.0,
                0.0,
                1.0,
                0.0,
                0.46346643567085268,
                0.054897986352443698,
                0.10000000894069672,
                1.0
            ],
            "name": "group_0"
        },
        {
            "matrix": [
                0.9950186014175416,
                -0.09968960285186768,
                -0.0,
                0.0,
                0.0669775977730751,
                0.6685144901275635,
                0.7406768798828125,
                0.0,
                -0.07383780181407929,
                -0.736987292766571,
                0.6718614101409912,
                0.0,
                1.7834731340408326,
                -1.5569229125976565,
                1.6150346994400025,
                1.0
            ],
            "camera": 0,
            "name": "skp_camera_Last_Saved_SketchUp_View"
        }
    ],
    "cameras": [
        {
            "perspective": {
                "yfov": 0.523598313331604,
                "zfar": 25.399999618530278,
                "znear": 0.02539999969303608
            },
            "type": "perspective",
            "name": "skp_camera_Last_Saved_SketchUp_View"
        }
    ],
    "meshes": [
        {
            "primitives": [
                {
                    "attributes": {
                        "NORMAL": 1,
                        "POSITION": 2
                    },
                    "indices": 0,
                    "mode": 4,
                    "material": 0
                }
            ],
            "name": "ID69"
        },
        {
            "primitives": [
                {
                    "attributes": {
                        "NORMAL": 4,
                        "POSITION": 5
                    },
                    "indices": 3,
                    "mode": 4,
                    "material": 1
                }
            ],
            "name": "ID62"
        },
        {
            "primitives": [
                {
                    "attributes": {
                        "NORMAL": 7,
                        "POSITION": 8
                    },
                    "indices": 6,
                    "mode": 4,
                    "material": 2
                }
            ],
            "name": "ID55"
        },
        {
            "primitives": [
                {
                    "attributes": {
                        "NORMAL": 10,
                        "POSITION": 11
                    },
                    "indices": 9,
                    "mode": 4,
                    "material": 3
                }
            ],
            "name": "ID47"
        },
        {
            "primitives": [
                {
                    "attributes": {
                        "NORMAL": 13,
                        "POSITION": 14
                    },
                    "indices": 12,
                    "mode": 4,
                    "material": 4
                }
            ],
            "name": "ID40"
        },
        {
            "primitives": [
                {
                    "attributes": {
                        "NORMAL": 16,
                        "POSITION": 17
                    },
                    "indices": 15,
                    "mode": 4,
                    "material": 5
                }
            ],
            "name": "ID33"
        },
        {
            "primitives": [
                {
                    "attributes": {
                        "NORMAL": 19,
                        "POSITION": 20
                    },
                    "indices": 18,
                    "mode": 4,
                    "material": 6
                }
            ],
            "name": "ID23"
        },
        {
            "primitives": [
                {
                    "attributes": {
                        "NORMAL": 22,
                        "POSITION": 23
                    },
                    "indices": 21,
                    "mode": 4,
                    "material": 7
                }
            ],
            "name": "ID14"
        },
        {
            "primitives": [
                {
                    "attributes": {
                        "NORMAL": 25,
                        "POSITION": 26
                    },
                    "indices": 24,
                    "mode": 4,
                    "material": 8
                }
            ],
            "name": "ID5"
        }
    ],
    "accessors": [
        {
            "bufferView": 0,
            "byteOffset": 0,
            "componentType": 5123,
            "count": 72,
            "max": [
                47
            ],
            "min": [
                0
            ],
            "type": "SCALAR"
        },
        {
            "bufferView": 1,
            "byteOffset": 0,
            "componentType": 5126,
            "count": 48,
            "max": [
                1.0,
                1.0,
                1.0
            ],
            "min": [
                -1.0,
                -1.0,
                -1.0
            ],
            "type": "VEC3"
        },
        {
            "bufferView": 1,
            "byteOffset": 576,
            "componentType": 5126,
            "count": 48,
            "max": [
                0.6000000238418579,
                0.30000001192092898,
                0.10000000894069672
            ],
            "min": [
                0.0,
                0.0,
                0.0
            ],
            "type": "VEC3"
        },
        {
            "bufferView": 0,
            "byteOffset": 144,
            "componentType": 5123,
            "count": 72,
            "max": [
                47
            ],
            "min": [
                0
            ],
            "type": "SCALAR"
        },
        {
            "bufferView": 1,
            "byteOffset": 1152,
            "componentType": 5126,
            "count": 48,
            "max": [
                1.0,
                1.0,
                1.0
            ],
            "min": [
                -1.0,
                -1.0,
                -1.0
            ],
            "type": "VEC3"
        },
        {
            "bufferView": 1,
            "byteOffset": 1728,
            "componentType": 5126,
            "count": 48,
            "max": [
                0.27000001072883608,
                0.1899999976158142,
                0.09000000357627869
            ],
            "min": [
                0.0,
                0.0,
                0.0
            ],
            "type": "VEC3"
        },
        {
            "bufferView": 0,
            "byteOffset": 288,
            "componentType": 5123,
            "count": 36,
            "max": [
                23
            ],
            "min": [
                0
            ],
            "type": "SCALAR"
        },
        {
            "bufferView": 1,
            "byteOffset": 2304,
            "componentType": 5126,
            "count": 24,
            "max": [
                1.0,
                1.0,
                1.0
            ],
            "min": [
                -1.0,
                -1.0,
                -1.0
            ],
            "type": "VEC3"
        },
        {
            "bufferView": 1,
            "byteOffset": 2592,
            "componentType": 5126,
            "count": 24,
            "max": [
                0.08000000566244126,
                0.18000000715255738,
                0.05000000447034836
            ],
            "min": [
                0.0,
                0.0,
                0.0
            ],
            "type": "VEC3"
        },
        {
            "bufferView": 0,
            "byteOffset": 360,
            "componentType": 5123,
            "count": 36,
            "max": [
                23
            ],
            "min": [
                0
            ],
            "type": "SCALAR"
        },
        {
            "bufferView": 1,
            "byteOffset": 2880,
            "componentType": 5126,
            "count": 24,
            "max": [
                1.0,
                1.0,
                1.0
            ],
            "min": [
                -1.0,
                -1.0,
                -1.0
            ],
            "type": "VEC3"
        },
        {
            "bufferView": 1,
            "byteOffset": 3168,
            "componentType": 5126,
            "count": 24,
            "max": [
                0.08000000566244126,
                0.18000000715255738,
                0.05000000447034836
            ],
            "min": [
                0.0,
                0.0,
                0.0
            ],
            "type": "VEC3"
        },
        {
            "bufferView": 0,
            "byteOffset": 432,
            "componentType": 5123,
            "count": 72,
            "max": [
                47
            ],
            "min": [
                0
            ],
            "type": "SCALAR"
        },
        {
            "bufferView": 1,
            "byteOffset": 3456,
            "componentType": 5126,
            "count": 48,
            "max": [
                1.0,
                1.0,
                1.0
            ],
            "min": [
                -1.0,
                -1.0,
                -1.0
            ],
            "type": "VEC3"
        },
        {
            "bufferView": 1,
            "byteOffset": 4032,
            "componentType": 5126,
            "count": 48,
            "max": [
                0.27000001072883608,
                0.1899999976158142,
                0.09000000357627869
            ],
            "min": [
                0.0,
                0.0,
                0.0
            ],
            "type": "VEC3"
        },
        {
            "bufferView": 0,
            "byteOffset": 576,
            "componentType": 5123,
            "count": 72,
            "max": [
                47
            ],
            "min": [
                0
            ],
            "type": "SCALAR"
        },
        {
            "bufferView": 1,
            "byteOffset": 4608,
            "componentType": 5126,
            "count": 48,
            "max": [
                1.0,
                1.0,
                1.0
            ],
            "min": [
                -1.0,
                -1.0,
                -1.0
            ],
            "type": "VEC3"
        },
        {
            "bufferView": 1,
            "byteOffset": 5184,
            "componentType": 5126,
            "count": 48,
            "max": [
                0.6000000238418579,
                0.30000001192092898,
                0.10000000894069672
            ],
            "min": [
                0.0,
                0.0,
                0.0
            ],
            "type": "VEC3"
        },
        {
            "bufferView": 0,
            "byteOffset": 720,
            "componentType": 5123,
            "count": 72,
            "max": [
                47
            ],
            "min": [
                0
            ],
            "type": "SCALAR"
        },
        {
            "bufferView": 1,
            "byteOffset": 5760,
            "componentType": 5126,
            "count": 48,
            "max": [
                1.0,
                1.0,
                1.0
            ],
            "min": [
                -1.0,
                -1.0,
                -1.0
            ],
            "type": "VEC3"
        },
        {
            "bufferView": 1,
            "byteOffset": 6336,
            "componentType": 5126,
            "count": 48,
            "max": [
                0.27000001072883608,
                0.1899999976158142,
                0.09000000357627869
            ],
            "min": [
                0.0,
                0.0,
                0.0
            ],
            "type": "VEC3"
        },
        {
            "bufferView": 0,
            "byteOffset": 864,
            "componentType": 5123,
            "count": 72,
            "max": [
                47
            ],
            "min": [
                0
            ],
            "type": "SCALAR"
        },
        {
            "bufferView": 1,
            "byteOffset": 6912,
            "componentType": 5126,
            "count": 48,
            "max": [
                1.0,
                1.0,
                1.0
            ],
            "min": [
                -1.0,
                -1.0,
                -1.0
            ],
            "type": "VEC3"
        },
        {
            "bufferView": 1,
            "byteOffset": 7488,
            "componentType": 5126,
            "count": 48,
            "max": [
                0.6000000238418579,
                0.30000001192092898,
                0.10000000894069672
            ],
            "min": [
                0.0,
                0.0,
                0.0
            ],
            "type": "VEC3"
        },
        {
            "bufferView": 0,
            "byteOffset": 1008,
            "componentType": 5123,
            "count": 36,
            "max": [
                23
            ],
            "min": [
                0
            ],
            "type": "SCALAR"
        },
        {
            "bufferView": 1,
            "byteOffset": 8064,
            "componentType": 5126,
            "count": 24,
            "max": [
                1.0,
                1.0,
                1.0
            ],
            "min": [
                -1.0,
                -1.0,
                -1.0
            ],
            "type": "VEC3"
        },
        {
            "bufferView": 1,
            "byteOffset": 8352,
            "componentType": 5126,
            "count": 24,
            "max": [
                0.08000000566244126,
                0.18000000715255738,
                0.05000000447034836
            ],
            "min": [
                0.0,
                0.0,
                0.0
            ],
            "type": "VEC3"
        }
    ],
    "materials": [
        {
            "pbrMetallicRoughness": {
                "baseColorFactor": [
                    0.3960784077644348,
                    0.4000000059604645,
                    0.4000000059604645,
                    1.0
                ],
                "metallicFactor": 0.0
            },
            "name": "ID16"
        },
        {
            "pbrMetallicRoughness": {
                "baseColorFactor": [
                    0.4941176176071167,
                    0.4980392158031464,
                    0.4980392158031464,
                    1.0
                ],
                "metallicFactor": 0.0
            },
            "name": "ID25"
        },
        {
            "pbrMetallicRoughness": {
                "baseColorFactor": [
                    1.0,
                    1.0,
                    1.0,
                    1.0
                ],
                "metallicFactor": 0.0
            },
            "name": "ID6"
        },
        {
            "pbrMetallicRoughness": {
                "baseColorFactor": [
                    1.0,
                    1.0,
                    1.0,
                    1.0
                ],
                "metallicFactor": 0.0
            },
            "name": "ID6"
        },
        {
            "pbrMetallicRoughness": {
                "baseColorFactor": [
                    0.4941176176071167,
                    0.4980392158031464,
                    0.4980392158031464,
                    1.0
                ],
                "metallicFactor": 0.0
            },
            "name": "ID25"
        },
        {
            "pbrMetallicRoughness": {
                "baseColorFactor": [
                    0.3960784077644348,
                    0.4000000059604645,
                    0.4000000059604645,
                    1.0
                ],
                "metallicFactor": 0.0
            },
            "name": "ID16"
        },
        {
            "pbrMetallicRoughness": {
                "baseColorFactor": [
                    0.4941176176071167,
                    0.4980392158031464,
                    0.4980392158031464,
                    1.0
                ],
                "metallicFactor": 0.0
            },
            "name": "ID25"
        },
        {
            "pbrMetallicRoughness": {
                "baseColorFactor": [
                    0.3960784077644348,
                    0.4000000059604645,
                    0.4000000059604645,
                    1.0
                ],
                "metallicFactor": 0.0
            },
            "name": "ID16"
        },
        {
            "pbrMetallicRoughness": {
                "baseColorFactor": [
                    1.0,
                    1.0,
                    1.0,
                    1.0
                ],
                "metallicFactor": 0.0
            },
            "name": "ID6"
        }
    ],
    "bufferViews": [
        {
            "buffer": 0,
            "byteOffset": 8640,
            "byteLength": 1080,
            "target": 34963
        },
        {
            "buffer": 0,
            "byteOffset": 0,
            "byteLength": 8640,
            "byteStride": 12,
            "target": 34962
        }
    ],
    "buffers": [
        {
            "byteLength": 9720,
            "uri": "data:application/octet-stream;base64,"
        }
    ]
}
